<svg xmlns="http://www.w3.org/2000/svg" width="106" height="110" viewBox="0 0 106 110">
    <g fill="none" fill-rule="evenodd" stroke="#96BC62" stroke-width="2.1">
        <path d="M59 25.083L77.472 42 82 19z"/>
        <path d="M68 26.083L86.472 43 91 20zM32 28C42.38 10.667 51.202 2 58.465 2 65.728 2 73.573 8.747 82 22.24"/>
        <path d="M22 28C32.38 10.667 41.202 2 48.465 2 55.728 2 63.573 8.747 72 22.24M78.066 76.432l-24.014 7.12L71.434 99.28z"/>
        <path d="M72.066 84.432l-24.014 7.12 17.382 15.728zM90.733 51.875c9.511 17.825 12.396 29.85 8.656 36.076-3.74 6.225-13.565 9.475-29.472 9.749"/>
        <path d="M94.733 42.875c9.511 17.825 12.396 29.85 8.656 36.076-3.74 6.225-13.565 9.475-29.472 9.749M22.56 67.168l5.414-24.455L5.79 50.29z"/>
        <path d="M19.56 59.168l5.414-24.455L2.79 42.29zM38.758 90.15c-20.201-.322-32.117-3.629-35.749-9.919-3.631-6.29-1.71-16.457 5.762-30.502"/>
        <path d="M43.758 99.15c-20.201-.322-32.117-3.629-35.749-9.919-3.631-6.29-1.71-16.457 5.762-30.502"/>
    </g>
</svg>
